<svg xmlns="http://www.w3.org/2000/svg" version="1.1" xmlns:xlink="http://www.w3.org/1999/xlink" xmlns:svgjs="http://svgjs.dev/svgjs" width="1500" height="935" viewBox="0 0 1500 935"><g transform="matrix(1,0,0,1,-0.9090909090909918,41.119508035823856)"><svg viewBox="0 0 396 247" data-background-color="#ffffff" preserveAspectRatio="xMidYMid meet" height="935" width="1500" xmlns="http://www.w3.org/2000/svg" xmlns:xlink="http://www.w3.org/1999/xlink"><g id="tight-bounds" transform="matrix(1,0,0,1,0.2400000000000091,-0.09999999999999432)"><svg viewBox="0 0 395.52 247.2" height="247.2" width="395.52"><g><svg></svg></g><g><svg viewBox="0 0 395.52 247.2" height="247.2" width="395.52"><g transform="matrix(1,0,0,1,92.26388333279999,94.51642028554795)"><svg viewBox="0 0 210.9922333344 58.1671594289041" height="58.1671594289041" width="210.9922333344"><g><svg viewBox="0 0 210.9922333344 58.1671594289041" height="58.1671594289041" width="210.9922333344"><g><svg viewBox="0 0 210.9922333344 58.1671594289041" height="58.1671594289041" width="210.9922333344"><g><path d="M0 58.167v-58.167h210.992v58.167z" fill="#010c80" stroke="transparent" stroke-width="0" rx="0%" data-fill-palette-color="tertiary"></path><path d="M2.787 55.381v-52.594h205.419v52.594z" fill="#ffffff" stroke="transparent" stroke-width="0" rx="0%" data-fill-palette-color="quaternary"></path><path d="M8.36 49.807v-41.447h194.272v41.447z" fill="#010c80" stroke="transparent" stroke-width="0" data-fill-palette-color="tertiary"></path></g><g transform="matrix(1,0,0,1,16.7195633328,16.7195633328)" id="textblocktransform"><svg viewBox="0 0 177.5531066688 24.7280327633041" height="24.7280327633041" width="177.5531066688" id="textblock"><g><svg viewBox="0 0 177.5531066688 24.7280327633041" height="24.7280327633041" width="177.5531066688"><g transform="matrix(1,0,0,1,0,0)"><svg width="177.5531066688" viewBox="0.49 -34.79 312.18 43.48" height="24.7280327633041" data-palette-color="#ffffff"><path d="M14.38 0.76L14.38 0.76Q8.03 0.76 4.26-3.16 0.49-7.08 0.49-13.67 0.49-20.26 4.76-24.1L4.76-24.1Q8.57-27.51 14.28-27.51L14.28-27.51Q19.36-27.51 22.71-25.01 26.05-22.51 26.05-18.21L26.05-18.21Q26.05-15.23 24.21-13.37 22.36-11.5 19.36-11.5L19.36-11.5Q16.92-11.5 15.3-12.81 13.67-14.11 13.38-16.21L13.38-16.21Q12.3-16.21 12.3-15.43L12.3-15.43Q12.3-13.65 14.06-12.16L14.06-12.16Q16.09-10.4 19.1-10.4 22.12-10.4 24.1-11.69L24.1-11.69Q25.32-9.81 25.32-7.13L25.32-7.13Q25.32-4 22.63-1.78L22.63-1.78Q19.56 0.76 14.38 0.76ZM39.84-13.6L39.84-13.6 39.84-9.33Q40.01-9.16 40.4-9.16 40.79-9.16 40.96-9.42 41.14-9.69 41.14-10.35L41.14-10.35 41.14-13.84Q41.14-16.19 40.94-16.96 40.74-17.72 40.21-17.72L40.21-17.72Q39.87-17.72 39.62-17.48L39.62-17.48Q39.84-15.06 39.84-13.6ZM30.71-2.78L30.71-2.78Q26.71-6.64 26.71-13.24 26.71-19.85 30.48-23.67 34.25-27.49 40.38-27.49 46.51-27.49 50.29-23.51L50.29-23.51Q54.05-19.53 54.05-13.15 54.05-6.76 50.42-3 46.8 0.76 40.57 0.76 34.35 0.76 30.71-2.78ZM68.16-13.6L68.16-13.6 68.16-9.33Q68.33-9.16 68.72-9.16 69.11-9.16 69.28-9.42 69.45-9.69 69.45-10.35L69.45-10.35 69.45-13.84Q69.45-16.19 69.26-16.96 69.06-17.72 68.53-17.72L68.53-17.72Q68.18-17.72 67.94-17.48L67.94-17.48Q68.16-15.06 68.16-13.6ZM59.03-2.78L59.03-2.78Q55.02-6.64 55.02-13.24 55.02-19.85 58.8-23.67 62.57-27.49 68.7-27.49 74.82-27.49 78.61-23.51L78.61-23.51Q82.37-19.53 82.37-13.15 82.37-6.76 78.74-3 75.12 0.76 68.89 0.76 62.67 0.76 59.03-2.78ZM96.18-29.47L96.18-29.47 96.18-12.3Q96.18-8.67 97.94-7.57L97.94-7.57Q97.97-7.45 97.97-7.1L97.97-7.1 97.97-6.67Q97.97-3.17 96.2-1.37 94.43 0.44 91.18 0.44 87.93 0.44 86.03-1.37L86.03-1.37Q83.76-3.52 83.76-7.86L83.76-7.86 83.76-33.23Q86.32-34.79 89.63-34.79 92.94-34.79 94.56-33.39 96.18-31.98 96.18-29.47ZM123.86 0.76L123.86 0.76Q117.52 0.76 113.74-3.16 109.97-7.08 109.97-13.67 109.97-20.26 114.25-24.1L114.25-24.1Q118.05-27.51 123.77-27.51L123.77-27.51Q128.84-27.51 132.19-25.01 135.53-22.51 135.53-18.21L135.53-18.21Q135.53-15.23 133.69-13.37 131.85-11.5 128.84-11.5L128.84-11.5Q126.4-11.5 124.78-12.81 123.16-14.11 122.86-16.21L122.86-16.21Q121.79-16.21 121.79-15.43L121.79-15.43Q121.79-13.65 123.55-12.16L123.55-12.16Q125.57-10.4 128.59-10.4 131.6-10.4 133.58-11.69L133.58-11.69Q134.8-9.81 134.8-7.13L134.8-7.13Q134.8-4 132.12-1.78L132.12-1.78Q129.04 0.76 123.86 0.76ZM149.33-13.6L149.33-13.6 149.33-9.33Q149.5-9.16 149.89-9.16 150.28-9.16 150.45-9.42 150.62-9.69 150.62-10.35L150.62-10.35 150.62-13.84Q150.62-16.19 150.42-16.96 150.23-17.72 149.69-17.72L149.69-17.72Q149.35-17.72 149.11-17.48L149.11-17.48Q149.33-15.06 149.33-13.6ZM140.19-2.78L140.19-2.78Q136.19-6.64 136.19-13.24 136.19-19.85 139.96-23.67 143.74-27.49 149.86-27.49 155.99-27.49 159.78-23.51L159.78-23.51Q163.53-19.53 163.53-13.15 163.53-6.76 159.91-3 156.28 0.76 150.06 0.76 143.83 0.76 140.19-2.78ZM204.74-16.94L204.65-12.08Q204.65-10.3 205.04-9.18 205.43-8.06 206.4-7.45L206.4-7.45Q206.43-7.32 206.43-7.03L206.43-7.03 206.43-6.67Q206.43-3.32 204.47-1.44 202.52 0.44 199.43 0.44 196.34 0.44 194.46-1.25L194.46-1.25Q192.24-3.2 192.24-7.23L192.24-7.23 192.24-14.94Q192.24-16.58 191.17-16.58L191.17-16.58Q190.75-16.58 190.51-16.38L190.51-16.38 190.95-12.74 190.95-7.23Q190.95-3.91 192.05-2.2L192.05-2.2Q190.88-0.95 189.13-0.26 187.38 0.44 185.58 0.44L185.58 0.44Q182.65 0.44 181.04-0.98L181.04-0.98Q179.08-2.69 179.08-6.37L179.08-6.37 179.08-14.94Q179.08-16.58 178.01-16.58L178.01-16.58Q177.59-16.58 177.35-16.38L177.35-16.38 177.79-12.74 177.79-6.27Q177.79-3.54 178.52-2.05L178.52-2.05Q176.13 0.42 171.81 0.42L171.81 0.42Q169.25 0.42 167.49-0.88L167.49-0.88Q165.46-2.37 165.46-4.88L165.46-4.88 165.46-16.55Q164.02-18.58 164.02-21.55 164.02-24.51 165.46-26.68L165.46-26.68 171.34-26.68Q173.08-26.68 174.3-25.39L174.3-25.39Q173.22-24.39 173.22-23.73L173.22-23.73Q173.22-22.97 174.08-22.97L174.08-22.97Q175.15-24.83 177.03-25.93L177.03-25.93Q179.23-27.17 182.18-27.17L182.18-27.17Q184.43-27.17 186.13-26.22 187.82-25.27 188.65-24.02L188.65-24.02Q189.8-25.59 191.65-26.38 193.49-27.17 195.49-27.17L195.49-27.17Q199.91-27.17 202.35-24.44L202.35-24.44Q204.74-21.7 204.74-16.94L204.74-16.94ZM220.22-13.18L220.22-13.18 220.22-9.91Q220.39-9.74 220.78-9.74 221.17-9.74 221.34-10.01 221.51-10.28 221.51-10.94L221.51-10.94 221.51-13.43Q221.51-15.77 221.32-16.54 221.12-17.31 220.59-17.31L220.59-17.31Q220.24-17.31 220-17.07L220-17.07Q220.22-14.65 220.22-13.18ZM212.43-23.71L212.43-23.71Q212.43-22.97 213.29-22.97L213.29-22.97Q214.75-25.27 216.73-26.38 218.71-27.49 221.49-27.49 224.27-27.49 226.57-26.61L226.57-26.61Q229.72-25.37 231.55-22.61L231.55-22.61Q233.84-19.12 233.84-13.45L233.84-13.45Q233.84-7.08 230.44-3.55 227.03-0.02 221-0.02L221-0.02Q217.63-0.02 215.75-0.85L215.75-0.85Q215.58-0.76 215.58-0.44L215.58-0.44Q215.58 0.29 216.72 0.61 217.85 0.93 220.63 1.07L220.63 1.07 220.63 7.57Q218.12 8.69 215.12 8.69L215.12 8.69Q211.58 8.69 209.77 7.4L209.77 7.4Q207.72 6.01 207.72 3.13L207.72 3.13 207.72-16.53Q206.28-18.55 206.28-21.56L206.28-21.56Q206.28-22.78 206.67-24.22 207.06-25.66 207.72-26.68L207.72-26.68 211.19-26.68Q213.31-26.68 214.43-26.1L214.43-26.1Q212.43-24.61 212.43-23.71ZM259.79-16.87L259.79-12.08Q259.79-10.33 260.18-9.25 260.57-8.18 261.55-7.57L261.55-7.57Q261.57-7.45 261.57-7.1L261.57-7.1 261.57-6.67Q261.57-3.2 259.47-1.27L259.47-1.27Q257.62 0.44 254.88 0.44L254.88 0.44Q253.03 0.44 251.49-0.44 249.95-1.32 249.29-2.98L249.29-2.98Q248.46-2.98 248.46-2.17L248.46-2.17Q248.46-1.49 249.32-0.63L249.32-0.63Q247.73 0.44 244.53 0.44L244.53 0.44Q240.02 0.44 237.32-2.01 234.62-4.47 234.62-8.87 234.62-13.28 237.48-15.7L237.48-15.7Q240.09-17.87 244.24-17.87L244.24-17.87Q245.66-17.87 246.97-17.68L246.97-17.68Q247.85-17.5 247.93-17.48L247.93-17.48Q248-17.72 248-17.9L248-17.9Q248-18.53 246.93-18.75 245.85-18.97 244.12-18.97L244.12-18.97Q240.43-18.97 237.82-17.48L237.82-17.48Q236.62-19.51 236.62-22.61L236.62-22.61Q236.62-24.37 237.06-25.22L237.06-25.22Q238.82-26.03 241.53-26.65 244.24-27.27 247.24-27.27L247.24-27.27Q253.44-27.27 256.62-24.56 259.79-21.85 259.79-16.87L259.79-16.87ZM247.12-10.89L247.12-10.89Q246.1-10.89 246.1-9.96L246.1-9.96Q246.1-9.08 247.29-9.08L247.29-9.08Q248.12-9.08 248.51-9.48 248.9-9.89 248.9-10.89L248.9-10.89Q248.9-10.89 247.12-10.89ZM275.63-19.14L275.63-19.14Q275-18.95 275-18.38L275-18.38 275-18.26Q275-18.14 275.02-18.12L275.02-18.12Q275.29-18.14 275.73-18.14L275.73-18.14 276.32-18.14Q279.1-18.14 281.53-17.3 283.96-16.46 285.5-14.6L285.5-14.6Q287.21-12.5 287.21-9.3L287.21-9.3Q287.21-4.32 283.76-1.78 280.32 0.76 274.56 0.76 268.8 0.76 265.54-1.15 262.28-3.05 262.28-6.74L262.28-6.74Q262.28-8.11 262.87-9.24 263.45-10.38 264.18-10.84L264.18-10.84Q265.53-9.72 268.08-8.9 270.63-8.08 273.49-8.08L273.49-8.08Q274.63-8.08 274.63-8.72L274.63-8.72Q274.63-9.01 274.56-9.2L274.56-9.2Q274.39-9.18 274.14-9.18L274.14-9.18 273.88-9.18Q268.7-9.18 265.6-11.23L265.6-11.23Q262.08-13.55 262.08-17.77 262.08-22 265.23-24.61L265.23-24.61Q268.73-27.49 274.83-27.49L274.83-27.49Q277.83-27.49 280.43-26.86 283.03-26.22 284.89-25.17L284.89-25.17Q285.35-24.17 285.35-22.22L285.35-22.22Q285.35-19.24 283.72-17.65L283.72-17.65Q282.47-18.33 280.68-18.79 278.88-19.24 277.44-19.24 276-19.24 275.63-19.14ZM301.1-19.14L301.1-19.14Q300.46-18.95 300.46-18.38L300.46-18.38 300.46-18.26Q300.46-18.14 300.49-18.12L300.49-18.12Q300.75-18.14 301.19-18.14L301.19-18.14 301.78-18.14Q304.56-18.14 306.99-17.3 309.42-16.46 310.96-14.6L310.96-14.6Q312.67-12.5 312.67-9.3L312.67-9.3Q312.67-4.32 309.23-1.78 305.78 0.76 300.02 0.76 294.26 0.76 291-1.15 287.74-3.05 287.74-6.74L287.74-6.74Q287.74-8.11 288.33-9.24 288.91-10.38 289.65-10.84L289.65-10.84Q290.99-9.72 293.54-8.9 296.09-8.08 298.95-8.08L298.95-8.08Q300.09-8.08 300.09-8.72L300.09-8.72Q300.09-9.01 300.02-9.2L300.02-9.2Q299.85-9.18 299.61-9.18L299.61-9.18 299.34-9.18Q294.16-9.18 291.06-11.23L291.06-11.23Q287.55-13.55 287.55-17.77 287.55-22 290.7-24.61L290.7-24.61Q294.19-27.49 300.29-27.49L300.29-27.49Q303.29-27.49 305.89-26.86 308.49-26.22 310.35-25.17L310.35-25.17Q310.81-24.17 310.81-22.22L310.81-22.22Q310.81-19.24 309.18-17.65L309.18-17.65Q307.93-18.33 306.14-18.79 304.34-19.24 302.9-19.24 301.46-19.24 301.1-19.14Z" opacity="1" transform="matrix(1,0,0,1,0,0)" fill="#ffffff" class="wordmark-text-0" data-fill-palette-color="quaternary" id="text-0"></path></svg></g></svg></g></svg></g></svg></g><g></g></svg></g></svg></g><g><path d="M98.119 88.943A105.496 105.496 0 0 1 297.401 88.943L295.272 88.943A103.367 103.367 0 0 0 100.248 88.943L98.119 88.943M98.119 158.257A105.496 105.496 0 0 0 297.401 158.257L295.272 158.257A103.367 103.367 0 0 1 100.248 158.257L98.119 158.257" fill="#010c80" stroke="transparent" data-fill-palette-color="tertiary"></path></g></svg></g><defs></defs></svg><rect width="395.52" height="247.2" fill="none" stroke="none" visibility="hidden"></rect></g></svg></g></svg>